<?xml version="1.0" standalone="no"?><!DOCTYPE svg PUBLIC "-//W3C//DTD SVG 1.1//EN" "http://www.w3.org/Graphics/SVG/1.1/DTD/svg11.dtd"><svg t="1578451454620" class="icon" viewBox="0 0 1024 1024" version="1.1" xmlns="http://www.w3.org/2000/svg" p-id="5349" xmlns:xlink="http://www.w3.org/1999/xlink" width="200" height="200"><defs><style type="text/css"></style></defs><path d="M794.6 475.9v-0.4c0-21.4-17.3-38.8-38.7-38.9-21.3 0.1-38.4 17.4-38.3 38.6v0.3c1.1 113.9-90.3 207-204.2 208.1-113.9 1.1-207-90.3-208.1-204.2v-4c0.2-21.2-16.8-38.7-38-38.9h-0.3c-21.4 0.1-38.8 17.5-38.8 38.9v0.4c-0.6 142 103.8 262.5 244.3 282.3v94H344c-21.5 0-38.9 17.4-38.9 38.9s17.4 38.9 38.9 38.9h334.7c21.5 0 38.9-17.4 38.9-38.9s-17.4-38.9-38.9-38.9H550.1v-94C690.7 738.3 795 617.8 794.6 475.9zM511.3 618.1c85.7-0.3 155-70 154.7-155.7V254.6c0.9-85.4-67.5-155.4-153-156.4-85.4-0.9-155.4 67.5-156.4 153v211.1c-0.3 85.7 68.9 155.5 154.7 155.8z" p-id="5350"></path></svg>