<?xml version="1.0" standalone="no"?><!DOCTYPE svg PUBLIC "-//W3C//DTD SVG 1.1//EN" "http://www.w3.org/Graphics/SVG/1.1/DTD/svg11.dtd"><svg t="1578451477562" class="icon" viewBox="0 0 1024 1024" version="1.1" xmlns="http://www.w3.org/2000/svg" p-id="5573" xmlns:xlink="http://www.w3.org/1999/xlink" width="200" height="200"><defs><style type="text/css"></style></defs><path d="M325.818182 232.727273v-31.650909A61.44 61.44 0 0 1 387.258182 139.636364h249.483636A61.44 61.44 0 0 1 698.181818 201.076364V232.727273h171.287273A61.44 61.44 0 0 1 930.909091 294.167273v528.756363A61.44 61.44 0 0 1 869.469091 884.363636H154.530909A61.44 61.44 0 0 1 93.090909 822.923636V294.167273A61.44 61.44 0 0 1 154.530909 232.727273z m186.181818 465.454545a139.636364 139.636364 0 1 0-139.636364-139.636363 139.636364 139.636364 0 0 0 139.636364 139.636363z" fill="#2c2c2c" p-id="5574"></path></svg>