<?xml version="1.0" standalone="no"?><!DOCTYPE svg PUBLIC "-//W3C//DTD SVG 1.1//EN" "http://www.w3.org/Graphics/SVG/1.1/DTD/svg11.dtd"><svg t="1578451553140" class="icon" viewBox="0 0 1024 1024" version="1.1" xmlns="http://www.w3.org/2000/svg" p-id="6380" xmlns:xlink="http://www.w3.org/1999/xlink" width="200" height="200"><defs><style type="text/css"></style></defs><path d="M622.661867 488.551962c41.899272-32.921807 68.972884-83.911108 68.972884-141.216255 0-99.057063-80.58127-179.63424-179.633217-179.63424-99.058087 0-179.63424 80.577177-179.63424 179.63424 0 57.305147 27.073612 108.294448 68.967768 141.216255-110.429065 44.1178-188.729385 151.97325-188.729385 277.93201l0 59.875692c0 16.548908 13.390985 29.939893 29.940916 29.939893l538.90272 0c16.548908 0 29.939893-13.390985 29.939893-29.939893l0-59.875692C811.390229 640.496559 733.091956 532.669762 622.661867 488.551962z" p-id="6381"></path><path d="M802.384112 477.734592c24.503067-27.016307 38.946011-62.540382 38.946011-100.431364 0-82.568531-67.158562-149.723-149.694347-149.723-2.486634 0-4.797259 0.61296-7.251148 0.728594 12.979616 18.742876 22.833031 39.705304 29.176506 62.156642 0.008186 0.002047 0.016373 0.004093 0.023536 0.00614-0.201591 0.016373-0.320295 0.026606-0.320295 0.026606s41.110303 109.558232-40.754193 195.515952c13.643742 6.139837 168.540577 70.434166 168.523181 280.469809 0.099261 0 0.198521-0.008186 0.297782-0.010233l0 0.00921 59.875692 0c16.548908 0 29.939893-13.390985 29.939893-29.939893l0-46.312792C931.144684 598.865393 880.331391 518.112208 802.384112 477.734592z" p-id="6382"></path><path d="M351.192036 486.014162c-81.864496-85.957721-40.754193-195.515952-40.754193-195.515952 6.315846-22.485107 16.196891-43.446511 29.151947-62.186318-2.430352-0.119727-4.742001-0.732687-7.222495-0.732687-82.541925 0-149.699464 67.154469-149.699464 149.723 0 37.889959 14.446014 73.414033 38.946011 100.431364-77.948303 40.377616-128.760572 121.130801-128.760572 212.496695l0 46.312792c0 16.548908 13.390985 29.939893 29.939893 29.939893l59.875692 0C182.651458 556.448328 337.547271 492.154 351.192036 486.014162z" p-id="6383"></path></svg>